HIERARCHY
ROOT Hips
{
	OFFSET -3.958830 18.904000 13.208200
	CHANNELS 6 Xposition Yposition Zposition Zrotation Yrotation Xrotation 
	JOINT LHipJoint
	{
		OFFSET 0.000000 0.000000 0.000000
		CHANNELS 3 Zrotation Yrotation Xrotation
		JOINT LeftUpLeg
		{
			OFFSET 1.800000 -1.400000 0.085000
			CHANNELS 3 Zrotation Yrotation Xrotation
			JOINT LeftLeg
			{
				OFFSET 2.215000 -6.000000 0.000000
				CHANNELS 3 Zrotation Yrotation Xrotation
				JOINT LeftFoot
				{
					OFFSET 2.500000 -6.900000 0.000000
					CHANNELS 3 Zrotation Yrotation Xrotation
					JOINT LeftToeBase
					{
						OFFSET 0.200000 -0.500000 1.950000
						CHANNELS 3 Zrotation Yrotation Xrotation
						End Site
						{
							OFFSET 0.000000 0.000000 0.000000
						}
					}
				}
			}
		}
	}
	JOINT RHipJoint
	{
		OFFSET 0.000000 0.000000 0.000000
		CHANNELS 3 Zrotation Yrotation Xrotation
		JOINT RightUpLeg
		{
			OFFSET -1.800000 -1.400000 0.085000
			CHANNELS 3 Zrotation Yrotation Xrotation
			JOINT RightLeg
			{
				OFFSET -2.215000 -6.000000 0.000000
				CHANNELS 3 Zrotation Yrotation Xrotation
				JOINT RightFoot
				{
					OFFSET -2.500000 -6.900000 0.000000
					CHANNELS 3 Zrotation Yrotation Xrotation
					JOINT RightToeBase
					{
						OFFSET -0.200000 -0.500000 1.950000
						CHANNELS 3 Zrotation Yrotation Xrotation
						End Site
						{
							OFFSET 0.000000 0.000000 0.000000
						}
					}
				}
			}
		}
	}
	JOINT LowerBack
	{
		OFFSET 0.000000 0.000000 0.000000
		CHANNELS 3 Zrotation Yrotation Xrotation
		JOINT Spine
		{
			OFFSET -0.087000 1.940000 -0.288900
			CHANNELS 3 Zrotation Yrotation Xrotation
			JOINT Spine1
			{
				OFFSET 0.000000 1.950000 0.060000
				CHANNELS 3 Zrotation Yrotation Xrotation
				JOINT Neck
				{
					OFFSET 0.000000 0.000000 0.000000
					CHANNELS 3 Zrotation Yrotation Xrotation
					JOINT Neck1
					{
						OFFSET 0.000000 1.600000 0.340000
						CHANNELS 3 Zrotation Yrotation Xrotation
						JOINT Head
						{
							OFFSET 0.000000 1.667000 -0.240000
							CHANNELS 3 Zrotation Yrotation Xrotation
							End Site
							{
								OFFSET 0.000000 0.000000 0.000000
							}
						}
					}
				}
				JOINT LeftShoulder
				{
					OFFSET 0.000000 0.000000 0.000000
					CHANNELS 3 Zrotation Yrotation Xrotation
					JOINT LeftArm
					{
						OFFSET 2.700000 1.550000 -0.730000
						CHANNELS 3 Zrotation Yrotation Xrotation
						JOINT LeftForeArm
						{
							OFFSET 5.450000 0.000000 0.000000
							CHANNELS 3 Zrotation Yrotation Xrotation
							JOINT LeftHand
							{
								OFFSET 3.450000 0.000000 0.000000
								CHANNELS 3 Zrotation Yrotation Xrotation
								JOINT LeftHandIndex1
								{
									OFFSET 0.750000 0.000000 0.000000
									CHANNELS 3 Zrotation Yrotation Xrotation
									End Site
									{
										OFFSET 0.000000 0.000000 0.000000
									}
								}
							}
						}
					}
				}
				JOINT RightShoulder
				{
					OFFSET 0.000000 0.000000 0.000000
					CHANNELS 3 Zrotation Yrotation Xrotation
					JOINT RightArm
					{
						OFFSET -2.700000 1.550000 -0.730000
						CHANNELS 3 Zrotation Yrotation Xrotation
						JOINT RightForeArm
						{
							OFFSET -5.450000 0.000000 0.000000
							CHANNELS 3 Zrotation Yrotation Xrotation
							JOINT RightHand
							{
								OFFSET -3.450000 0.000000 0.000000
								CHANNELS 3 Zrotation Yrotation Xrotation
								JOINT RightHandIndex1
								{
									OFFSET -0.750000 0.000000 0.000000
									CHANNELS 3 Zrotation Yrotation Xrotation
									End Site
									{
										OFFSET 0.000000 0.000000 0.000000
									}
								}
							}
						}
					}
				}
			}
		}
	}
}
MOTION
Frames: 10
Frame Time: 0.016667
1.744270 17.550020 -1.159890 1.314992 10.823228 -1.270408 -14.956896 12.963961 3.016882 5.048428 -1.690054 -7.167866 -17.795061 8.641532 13.554353 0.326910 5.252184 2.926757 0.220010 0.271280 -0.009520 18.671710 -9.850255 3.432810 13.036653 4.852862 -34.868595 -18.750464 0.769361 32.351010 -0.423691 -3.974710 3.122051 0.022900 0.255810 0.040920 -4.585544 -2.574324 -7.708922 20.089469 -12.436359 16.988598 -21.065629 -9.536232 2.216693 5.905123 -8.318163 -7.008937 -19.425786 7.530163 33.535014 -6.468760 4.695270 -5.407890 -25.026086 2.552376 -4.846545 -37.973888 -10.881515 -8.646284 10.633384 -51.215356 -5.409677 -3.466789 2.910131 0.251530 0.087500 0.069740 0.329110 11.984934 -3.011171 9.671464 63.143752 -20.979814 -16.540092 85.986508 52.885444 34.769162 2.192038 -1.976132 -0.060650 0.258000 -0.151730 0.099320 
1.734640 17.518320 -1.157910 1.241910 10.312784 -1.383441 -14.951807 12.949129 3.050707 5.360985 -1.826821 -7.358938 -18.335121 8.853922 13.953039 0.366460 5.353537 2.883070 0.226240 0.284680 -0.000440 18.668780 -9.857503 3.411336 12.647940 4.772130 -34.653236 -16.822287 0.201077 29.768725 -0.324377 -3.481585 3.286680 0.024310 0.245210 0.053200 -4.580352 -2.534455 -7.712105 19.991361 -12.231547 16.997763 -21.303536 -9.294656 2.621352 5.952172 -7.987555 -7.225400 -18.724649 7.223014 33.502299 -6.754650 4.880480 -5.290080 -24.496421 1.774714 -4.872696 -36.550800 -12.060444 -7.992153 10.699806 -48.486910 -4.886743 -3.486202 2.915162 0.233830 0.091070 0.078950 0.330300 11.381352 -2.389488 10.067591 64.067732 -20.765342 -16.221288 90.087552 53.269507 37.424469 2.207270 -2.011400 -0.042850 0.238890 -0.162690 0.105400 
1.713900 17.462060 -1.151390 1.092019 9.205143 -1.265665 -14.950356 12.930939 3.053187 5.557168 -1.964558 -7.940344 -18.573028 9.126047 14.824768 0.376076 5.497389 2.847714 0.162270 0.225240 -0.045300 18.668343 -9.820720 3.432112 12.205281 4.887246 -34.814546 -14.100846 -0.444952 25.677906 -0.149598 -2.808157 3.544470 0.006500 0.305290 0.047360 -4.562455 -2.515023 -7.695539 19.730225 -11.987040 16.402110 -21.668165 -8.949192 3.665037 5.981236 -7.530478 -7.818174 -17.552888 7.127259 32.943662 -7.330740 5.595350 -3.816630 -23.505355 0.169677 -4.433769 -34.220549 -12.575994 -7.550885 11.440849 -45.117991 -4.597510 -3.568389 2.874052 0.196570 0.146660 0.035860 0.325630 10.401090 -0.846335 10.773396 65.012422 -20.197071 -15.614826 97.358771 53.455072 42.108472 2.202986 -2.036702 -0.074880 0.259250 -0.128990 0.110350 
1.683200 17.412380 -1.149980 0.539135 8.024236 -1.476464 -14.936256 12.895200 3.031159 6.163421 -2.123299 -8.388226 -18.574562 9.428011 15.967642 0.368563 5.638027 2.793538 0.171030 0.225380 -0.016980 18.677510 -9.800892 3.467944 11.557035 5.083678 -34.744374 -10.332811 -1.156655 21.326110 -0.016494 -2.156017 3.782437 0.019890 0.299150 0.046940 -4.577545 -2.410579 -7.684830 19.689869 -11.858010 15.927110 -22.201672 -8.570144 5.194826 5.989219 -6.878281 -8.581025 -16.201902 7.034218 33.167491 -7.857970 6.261220 -3.568560 -21.597932 -1.860838 -3.609166 -31.962713 -13.372174 -6.807389 11.748403 -40.241226 -4.033379 -3.603470 2.844538 0.200200 0.160460 0.034060 0.324190 8.540074 1.104725 11.262028 66.588160 -17.948332 -14.535094 102.688866 53.470684 45.949711 2.197142 -2.085981 -0.091100 0.253710 -0.144440 0.092420 
1.642020 17.379600 -1.139180 0.025471 6.918394 -1.580560 -14.949671 12.925846 3.000154 6.675676 -2.240906 -8.890218 -18.171272 9.691869 17.271707 0.406001 5.748818 2.743631 0.157950 0.224290 -0.023740 18.657356 -9.750057 3.489719 10.527812 5.202059 -34.534092 -6.385850 -1.692456 16.975444 0.085074 -1.673553 3.948568 0.011300 0.313340 0.076290 -4.515553 -2.477819 -7.671964 18.961046 -11.586900 15.276483 -21.778393 -8.229197 6.612085 5.800067 -6.361111 -9.273470 -15.100176 7.190440 33.111617 -8.262520 7.026200 -2.676080 -19.949888 -3.630540 -2.731820 -30.405570 -14.213651 -5.721873 11.448769 -34.424619 -3.273018 -3.680471 2.862981 0.151200 0.192080 0.026860 0.318020 7.379459 2.917407 11.516853 66.309998 -15.712818 -13.031412 107.760159 53.621377 50.150678 2.219738 -2.137910 -0.063580 0.224180 -0.137890 0.107490 
1.591960 17.391940 -1.126980 -0.788338 5.412649 -2.108628 -14.946192 12.958743 2.961630 7.576682 -2.162322 -8.650880 -17.773124 9.836570 17.751829 0.422926 5.815857 2.712096 0.163750 0.227550 -0.007050 18.646917 -9.726832 3.523633 9.588926 5.323289 -33.701862 -2.865461 -2.005852 13.009161 0.128254 -1.383177 4.057064 0.004430 0.303110 0.086900 -4.487755 -2.489757 -7.703958 18.305855 -11.239672 15.141299 -21.205147 -7.774222 7.803087 5.612572 -5.710958 -10.170480 -14.089213 7.739155 34.447738 -8.238580 7.830640 -2.336130 -18.717670 -6.019488 -1.363478 -28.863209 -14.180811 -4.835914 10.650982 -28.913911 -2.565000 -3.713379 2.862118 0.149290 0.192020 0.038370 0.313950 6.600086 5.337881 11.605136 65.535914 -12.382679 -11.630917 109.726864 54.159901 52.325729 2.269057 -2.132441 -0.050240 0.211530 -0.142330 0.103910 
1.527630 17.432990 -1.116980 -1.482505 3.874995 -3.025397 -14.951155 13.034607 2.949929 8.589032 -1.904555 -7.566510 -17.502032 9.857819 17.308747 0.394096 5.848635 2.691214 0.157940 0.220110 0.016930 18.616342 -9.731068 3.540870 8.565643 5.284236 -32.554409 -0.240977 -2.187044 10.165369 0.132615 -1.267738 4.109466 0.000160 0.277540 0.068540 -4.419346 -2.549605 -7.789513 16.842428 -10.732193 15.520162 -20.014199 -7.281871 8.795006 5.418442 -4.731239 -11.018364 -12.669761 8.373354 37.244749 -8.790230 9.054510 -2.838340 -18.079589 -8.782812 0.246101 -27.265040 -13.746654 -3.864562 8.804857 -23.534481 -1.766643 -3.732711 2.801976 0.192730 0.177630 0.059040 0.291650 6.417607 7.922255 11.351143 64.058171 -8.085834 -10.330708 107.792140 55.032202 51.449740 2.336054 -2.046586 -0.071120 0.231950 -0.131650 0.073740 
1.461520 17.484200 -1.094500 -1.844774 2.147142 -3.372386 -14.977371 13.145838 2.931153 8.870686 -1.474286 -6.494482 -16.746158 9.557782 16.176750 0.371048 5.713451 2.740773 0.164930 0.212060 0.057300 18.565030 -9.739048 3.571773 7.538202 5.270146 -31.994515 1.200004 -2.226215 8.439761 0.122793 -1.225337 4.121416 -0.011490 0.254070 0.079620 -4.289907 -2.654617 -7.862218 14.940897 -9.653518 15.230677 -18.145047 -6.465285 9.314390 5.136266 -3.841338 -11.620150 -11.269276 8.834775 39.971561 -9.310290 10.289740 -2.622200 -18.036609 -10.988446 1.643913 -26.668222 -13.337965 -2.771465 6.254766 -19.182562 -1.076381 -3.754438 2.775431 0.214540 0.172510 0.082000 0.277370 7.029491 10.136418 10.879325 61.649236 -4.139227 -9.015441 103.194089 55.388519 48.029765 2.412821 -1.988696 -0.067480 0.222850 -0.136410 0.051750 
1.383100 17.543860 -1.062960 -2.029362 0.810659 -3.299804 -15.023577 13.287484 2.897069 8.628515 -1.016464 -5.773700 -15.370089 8.996342 14.875400 0.336960 5.450157 2.831786 0.167370 0.206170 0.072460 18.498059 -9.755084 3.586065 6.456662 5.270575 -32.062407 1.616402 -2.266984 8.400298 0.111039 -1.233766 4.099736 -0.028790 0.247210 0.113710 -4.113460 -2.810959 -7.876522 13.011566 -8.494793 14.425148 -16.264258 -5.667759 9.472315 4.847628 -3.428357 -12.035684 -10.668644 9.339659 41.727287 -9.561500 11.238430 -2.200160 -17.424907 -12.388359 2.703037 -27.529978 -13.661506 -1.277915 3.293804 -14.916251 -0.533505 -3.797944 2.776365 0.213940 0.178240 0.098390 0.268200 7.137099 11.864901 10.306187 60.259199 -0.458462 -7.923448 95.060966 55.373941 42.058928 2.452269 -1.968312 -0.043100 0.197090 -0.129870 0.049400 
1.303570 17.588270 -1.023180 -2.758324 0.649556 -2.998146 -15.063732 13.388973 2.838380 8.898378 -0.842515 -5.904899 -14.049363 8.646218 14.567219 0.304294 5.272344 2.894339 0.175790 0.228060 0.065830 18.447384 -9.787989 3.547777 5.357272 5.186550 -32.016522 1.532754 -2.284636 8.951310 0.115981 -1.292065 4.079498 -0.014710 0.268100 0.123410 -3.982633 -2.908864 -7.804295 11.962652 -7.806794 12.874257 -14.647827 -5.327570 9.680599 4.535036 -3.159166 -12.003666 -10.073014 9.611126 42.446451 -8.872480 11.595000 -1.275080 -15.909905 -13.139320 3.460563 -30.076083 -14.919472 0.587918 0.270393 -10.892010 -0.151378 -3.852109 2.784947 0.180950 0.203160 0.086310 0.279040 6.352927 12.794118 9.380067 59.799930 3.590524 -6.676845 83.231616 53.661719 33.481522 2.418949 -1.996187 -0.031890 0.189200 -0.137840 0.062630 
